<?xml version="1.0" encoding="UTF-8"?><svg id="Layer_1" xmlns="http://www.w3.org/2000/svg" viewBox="0 0 110 110"><path d="M81.3,1.29c-11.07-4.45-21.76,6.24-17.31,17.31,1.26,3.13,3.78,5.64,6.9,6.9,11.07,4.45,21.76-6.24,17.31-17.31-1.26-3.13-3.78-5.64-6.9-6.9ZM74.81,9.19c3.5-.93,6.43,2.01,5.5,5.5-.37,1.41-1.5,2.54-2.91,2.91-3.5.93-6.43-2.01-5.5-5.5.37-1.41,1.5-2.54,2.91-2.91ZM52.15,21.2l-15.74,1.78c-2.6.29-4.88,1.76-6.3,3.97l-9.58,14.85c-.75,1.17-.41,2.73.77,3.47l3.45,2.17c1,.63,2.33.34,2.97-.65l9.14-14.05c.41-.63,1.08-1.04,1.82-1.12l8.81-.97-6.43,18.2c-17.18,2.48-29.86,19.19-25.36,37.81,2.62,10.87,11.21,19.48,22.07,22.15,20.18,4.95,38.33-10.33,38.33-29.71,0-1.49-.21-2.94-.41-4.38h3.6c1.17,0,2.19.82,2.44,1.96l4.91,22.27c.3,1.35,1.64,2.21,2.99,1.9l3.62-.82c1.34-.3,2.18-1.62,1.89-2.96l-5.23-24.27c-.87-4-4.53-6.84-8.62-6.84h-8.21c-1.74-3.68-4.26-6.88-7.25-9.58l5.06-14.1c2.21-6.11-.44-12.95-6.16-16.01l-7.39-4.11v.14c-1.57-.84-3.44-1.3-5.2-1.09ZM55.54,34.43c.52-1.42,2.18-2.06,3.52-1.34l1.57.84c1.95,1.04,2.81,3.27,2.05,5.34l-4.38,12.04c-2.53-1.18-5.23-2.02-8.07-2.46l5.3-14.41ZM40.67,57.69c15.88-3.3,29.47,10.29,26.18,26.18-1.72,8.3-8.32,14.9-16.62,16.62-15.88,3.3-29.47-10.29-26.18-26.18,1.72-8.3,8.32-14.9,16.62-16.62Z" fill="#001116"/></svg>