<?xml version="1.0" encoding="UTF-8"?><svg id="Layer_1" xmlns="http://www.w3.org/2000/svg" viewBox="0 0 612.18 120"><path d="M24.54,87.58c-.78,0-1.41-.32-1.88-.96-.47-.64-.79-1.58-.95-2.81l-7.26-51.8c-.21-1.45-.06-2.6.43-3.44.49-.84,1.23-1.26,2.22-1.26.74,0,1.34.29,1.82.88.47.59.79,1.5.95,2.72l6.52,49.12h-2.22l18.53-49.71c.37-1.06.81-1.83,1.32-2.31.51-.47,1.14-.71,1.88-.71.7,0,1.26.31,1.69.92.43.62.75,1.59.95,2.93l6.59,48.87h-1.97l18.4-49.88c.37-.95.78-1.66,1.23-2.14.45-.47,1.05-.71,1.79-.71,1.15,0,1.91.5,2.28,1.51.37,1.01.29,2.21-.25,3.6l-19.45,52.14c-.41,1.06-.88,1.83-1.42,2.3-.53.47-1.21.71-2.03.71s-1.47-.32-1.94-.96c-.47-.64-.79-1.58-.95-2.81l-6.46-46.61h1.29l-17.67,47.36c-.41,1.06-.87,1.83-1.38,2.3-.51.47-1.2.71-2.06.71Z" fill="#001116"/><path d="M82.27,87.58c-.86,0-1.49-.41-1.88-1.22-.39-.81-.52-1.91-.4-3.31l6.03-51.89c.16-1.29.51-2.25,1.05-2.89.53-.64,1.25-.96,2.15-.96s1.56.38,1.97,1.13c.41.75.53,1.86.37,3.31l-2.71,23.47h-.68c1.03-3.13,2.51-5.55,4.46-7.25,1.95-1.7,4.3-2.56,7.05-2.56,2.22,0,4.07.6,5.57,1.8,1.5,1.2,2.56,3.06,3.2,5.57.64,2.51.73,5.7.28,9.56l-2.46,21.38c-.12,1.29-.46,2.25-1.02,2.89-.55.64-1.3.96-2.25.96-.86,0-1.5-.39-1.91-1.17-.41-.78-.55-1.87-.43-3.27l2.46-20.7c.41-3.63.18-6.34-.68-8.13-.86-1.79-2.4-2.68-4.62-2.68-2.87,0-5.16,1.2-6.86,3.6-1.7,2.4-2.78,5.65-3.23,9.72l-2.22,18.78c-.25,2.57-1.33,3.86-3.26,3.86Z" fill="#001116"/><path d="M129.35,87.75c-2.87,0-5.37-.74-7.48-2.22-2.11-1.48-3.75-3.58-4.89-6.29-1.15-2.71-1.72-5.91-1.72-9.6,0-4.47.66-8.54,1.97-12.2,1.31-3.66,3.18-6.58,5.6-8.76,2.42-2.18,5.27-3.27,8.56-3.27,2.38,0,4.37.57,5.97,1.72,1.6,1.15,2.87,2.68,3.82,4.61.94,1.93,1.57,4.11,1.88,6.54.31,2.43.34,4.93.09,7.5-.08,1.01-.27,1.68-.55,2.01-.29.34-.74.5-1.35.5h-21.6l.49-4.86h19.57l-1.11,1.17c.29-2.57.23-4.88-.18-6.92-.41-2.04-1.19-3.67-2.34-4.9-1.15-1.23-2.73-1.84-4.74-1.84-2.13,0-3.92.66-5.35,1.97-1.44,1.31-2.55,2.98-3.35,4.99-.8,2.01-1.32,4.16-1.57,6.45l-.31,2.1c-.53,4.64,0,8.34,1.6,11.11,1.6,2.77,4.06,4.15,7.39,4.15,1.44,0,2.83-.22,4.19-.67,1.35-.45,2.65-1.2,3.88-2.26.57-.56,1.1-.81,1.57-.75.47.06.85.28,1.14.67.29.39.47.88.55,1.47.08.59.02,1.2-.18,1.84-.21.64-.58,1.21-1.11,1.72-1.4,1.34-3.05,2.35-4.96,3.02-1.91.67-3.72,1.01-5.45,1.01Z" fill="#001116"/><path d="M162.22,87.75c-2.87,0-5.37-.74-7.48-2.22-2.11-1.48-3.75-3.58-4.89-6.29-1.15-2.71-1.72-5.91-1.72-9.6,0-4.47.66-8.54,1.97-12.2,1.31-3.66,3.18-6.58,5.6-8.76,2.42-2.18,5.27-3.27,8.56-3.27,2.38,0,4.37.57,5.97,1.72,1.6,1.15,2.87,2.68,3.82,4.61.94,1.93,1.57,4.11,1.88,6.54.31,2.43.34,4.93.09,7.5-.08,1.01-.27,1.68-.55,2.01-.29.34-.74.5-1.35.5h-21.6l.49-4.86h19.57l-1.11,1.17c.29-2.57.23-4.88-.18-6.92-.41-2.04-1.19-3.67-2.34-4.9-1.15-1.23-2.73-1.84-4.74-1.84-2.13,0-3.92.66-5.35,1.97-1.44,1.31-2.55,2.98-3.35,4.99-.8,2.01-1.32,4.16-1.57,6.45l-.31,2.1c-.53,4.64,0,8.34,1.6,11.11,1.6,2.77,4.06,4.15,7.39,4.15,1.44,0,2.83-.22,4.19-.67,1.35-.45,2.65-1.2,3.88-2.26.57-.56,1.1-.81,1.57-.75.47.06.85.28,1.14.67.29.39.47.88.55,1.47.08.59.02,1.2-.18,1.84-.21.64-.58,1.21-1.11,1.72-1.4,1.34-3.05,2.35-4.96,3.02-1.91.67-3.72,1.01-5.45,1.01Z" fill="#001116"/><path d="M189.98,87.75c-3.08,0-5.3-1.22-6.68-3.65-1.38-2.43-1.8-5.99-1.26-10.69l4.99-42.33c.12-1.29.46-2.23,1.02-2.85.55-.61,1.28-.92,2.19-.92s1.5.39,1.91,1.17c.41.78.53,1.87.37,3.27l-4.86,41.58c-.33,2.85-.16,4.9.49,6.16.66,1.26,1.79,1.89,3.39,1.89.53,0,.95-.04,1.26-.13.31-.08.56-.13.77-.13.33,0,.59.14.8.42.2.28.31.87.31,1.76,0,1.17-.21,2.1-.62,2.77-.41.67-.9,1.09-1.48,1.26-.33.17-.75.28-1.26.34-.51.05-.95.08-1.32.08Z" fill="#001116"/><path d="M209.06,87.75c-1.76,0-3.4-.53-4.89-1.59-1.5-1.06-2.71-2.53-3.63-4.4-.92-1.87-1.38-3.98-1.38-6.33,0-2.91.59-5.24,1.79-7,1.19-1.76,3.04-3.07,5.54-3.94,2.5-.87,5.7-1.3,9.6-1.3h4.99l-.55,4.86h-3.82c-3,0-5.35.21-7.08.63-1.72.42-2.97,1.13-3.72,2.14-.76,1.01-1.14,2.38-1.14,4.11,0,2.35.57,4.15,1.72,5.41,1.15,1.26,2.5,1.89,4.06,1.89,1.44,0,2.78-.45,4.03-1.34,1.25-.89,2.32-2.17,3.2-3.81.88-1.65,1.45-3.65,1.69-5.99l1.17-10.14c.37-3.07.06-5.43-.92-7.08-.98-1.65-2.75-2.47-5.29-2.47-1.44,0-2.83.21-4.19.63-1.35.42-2.71,1.13-4.06,2.14-.58.39-1.11.53-1.6.42-.49-.11-.89-.38-1.2-.8-.31-.42-.48-.94-.52-1.55-.04-.61.07-1.23.34-1.84.27-.61.75-1.17,1.45-1.68,1.6-1.12,3.31-1.94,5.14-2.47,1.83-.53,3.6-.8,5.32-.8,2.91,0,5.22.74,6.92,2.22,1.7,1.48,2.86,3.52,3.48,6.12.62,2.6.72,5.66.31,9.18l-2.46,20.87c-.08,1.23-.39,2.17-.92,2.81-.53.64-1.23.96-2.09.96s-1.43-.36-1.82-1.09c-.39-.73-.52-1.79-.4-3.19l.74-6.45.49,1.01c-.53,2.24-1.34,4.09-2.43,5.57-1.09,1.48-2.31,2.57-3.66,3.27-1.35.7-2.75,1.05-4.19,1.05Z" fill="#001116"/><path d="M248.15,87.75c-2.38,0-4.49-.81-6.34-2.43-1.85-1.62-3.12-4.05-3.82-7.29l.49-1.26-.8,6.96c-.08,1.29-.38,2.25-.89,2.89-.51.64-1.24.96-2.19.96-.86,0-1.51-.39-1.94-1.17-.43-.78-.56-1.87-.4-3.27l6.03-51.97c.16-1.29.51-2.25,1.05-2.89.53-.64,1.27-.96,2.22-.96.86,0,1.5.39,1.91,1.17.41.78.53,1.87.37,3.27l-2.65,22.88h-.68c1.11-2.91,2.62-5.17,4.52-6.79,1.91-1.62,4.13-2.43,6.68-2.43,2.3,0,4.31.7,6.03,2.1,1.72,1.4,3.07,3.41,4.03,6.04.96,2.63,1.45,5.76,1.45,9.39,0,4.53-.6,8.66-1.79,12.41-1.19,3.75-2.9,6.75-5.14,9.01-2.24,2.26-4.96,3.4-8.16,3.4ZM247.41,81.72c2.17,0,4.01-.82,5.51-2.47,1.5-1.65,2.65-3.88,3.45-6.71.8-2.82,1.2-5.94,1.2-9.35,0-3.8-.69-6.71-2.06-8.72-1.38-2.01-3.27-3.02-5.69-3.02-2.18,0-4.02.83-5.54,2.47-1.52,1.65-2.67,3.87-3.45,6.66-.78,2.79-1.17,5.92-1.17,9.39,0,3.8.69,6.71,2.06,8.72,1.37,2.01,3.27,3.02,5.69,3.02Z" fill="#001116"/><path d="M277.45,87.75c-3.08,0-5.3-1.22-6.68-3.65-1.38-2.43-1.8-5.99-1.26-10.69l4.99-42.33c.12-1.29.46-2.23,1.02-2.85.55-.61,1.28-.92,2.19-.92s1.5.39,1.91,1.17c.41.78.53,1.87.37,3.27l-4.86,41.58c-.33,2.85-.16,4.9.49,6.16.66,1.26,1.79,1.89,3.39,1.89.53,0,.95-.04,1.26-.13.31-.08.56-.13.77-.13.33,0,.59.14.8.42.2.28.31.87.31,1.76,0,1.17-.21,2.1-.62,2.77-.41.67-.9,1.09-1.48,1.26-.33.17-.75.28-1.26.34-.51.05-.95.08-1.32.08Z" fill="#001116"/><path d="M300.77,87.75c-2.87,0-5.37-.74-7.48-2.22-2.11-1.48-3.75-3.58-4.89-6.29-1.15-2.71-1.72-5.91-1.72-9.6,0-4.47.66-8.54,1.97-12.2,1.31-3.66,3.18-6.58,5.6-8.76,2.42-2.18,5.27-3.27,8.56-3.27,2.38,0,4.37.57,5.97,1.72,1.6,1.15,2.87,2.68,3.82,4.61.94,1.93,1.57,4.11,1.88,6.54.31,2.43.34,4.93.09,7.5-.08,1.01-.27,1.68-.55,2.01-.29.34-.74.5-1.35.5h-21.6l.49-4.86h19.57l-1.11,1.17c.29-2.57.22-4.88-.18-6.92-.41-2.04-1.19-3.67-2.34-4.9-1.15-1.23-2.73-1.84-4.74-1.84-2.13,0-3.92.66-5.36,1.97-1.44,1.31-2.55,2.98-3.35,4.99-.8,2.01-1.32,4.16-1.57,6.45l-.31,2.1c-.53,4.64,0,8.34,1.6,11.11,1.6,2.77,4.06,4.15,7.39,4.15,1.44,0,2.83-.22,4.19-.67,1.35-.45,2.65-1.2,3.88-2.26.57-.56,1.1-.81,1.57-.75.47.06.85.28,1.14.67.29.39.47.88.55,1.47.08.59.02,1.2-.18,1.84-.21.64-.58,1.21-1.11,1.72-1.4,1.34-3.05,2.35-4.96,3.02-1.91.67-3.72,1.01-5.45,1.01Z" fill="#001116"/><path d="M338.69,87.58c-.94,0-1.62-.41-2.03-1.22-.41-.81-.53-1.94-.37-3.39l6.03-51.72c.12-1.34.45-2.33.99-2.98.53-.64,1.27-.96,2.22-.96s1.62.41,2.03,1.22c.41.81.53,1.94.37,3.4l-2.52,21.79h25.11l2.65-22.47c.16-1.34.5-2.33,1.02-2.98.51-.64,1.24-.96,2.18-.96s1.63.39,2.06,1.17c.43.78.54,1.93.34,3.44l-5.97,51.72c-.16,1.29-.5,2.26-1.02,2.93s-1.24,1.01-2.18,1.01-1.68-.41-2.09-1.22c-.41-.81-.51-1.94-.31-3.39l2.58-22.63h-25.17l-2.71,23.3c-.12,1.29-.45,2.26-.98,2.93-.53.67-1.27,1.01-2.22,1.01Z" fill="#001116"/><path d="M395.87,87.75c-2.75,0-5.12-.73-7.11-2.18-1.99-1.45-3.51-3.53-4.56-6.25-1.05-2.71-1.57-5.91-1.57-9.6s.38-6.76,1.14-9.72c.76-2.96,1.86-5.53,3.29-7.71s3.13-3.87,5.08-5.07c1.95-1.2,4.09-1.8,6.43-1.8,2.79,0,5.17.73,7.14,2.18,1.97,1.45,3.49,3.54,4.55,6.25,1.07,2.71,1.6,5.94,1.6,9.68,0,3.47-.39,6.68-1.17,9.64-.78,2.96-1.88,5.53-3.29,7.71-1.42,2.18-3.1,3.87-5.05,5.07-1.95,1.2-4.11,1.8-6.49,1.8ZM396.05,81.72c2.17,0,4.01-.82,5.51-2.47,1.5-1.65,2.65-3.88,3.45-6.71.8-2.82,1.2-5.94,1.2-9.35,0-3.8-.69-6.71-2.06-8.72-1.38-2.01-3.27-3.02-5.69-3.02-2.18,0-4.02.83-5.54,2.47-1.52,1.65-2.67,3.87-3.45,6.66-.78,2.79-1.17,5.92-1.17,9.39,0,3.8.69,6.71,2.06,8.72s3.27,3.02,5.69,3.02Z" fill="#001116"/><path d="M429.05,87.75c-2.38,0-4.35-.63-5.91-1.89-1.56-1.26-2.65-3-3.26-5.24-.62-2.23-.74-4.86-.37-7.88l2.4-20.71h-3.57c-.74,0-1.32-.21-1.75-.63-.43-.42-.65-1.02-.65-1.8,0-1.12.27-1.97.8-2.56s1.23-.88,2.09-.88h3.75l1.11-9.39c.16-1.23.49-2.14.99-2.72.49-.59,1.19-.88,2.09-.88s1.62.36,2.03,1.09c.41.73.53,1.79.37,3.19l-.99,8.72h7.08c.78,0,1.38.2,1.82.59.43.39.65,1.01.65,1.84,0,1.01-.25,1.83-.74,2.47-.49.64-1.15.96-1.97.96h-7.51l-2.34,19.95c-.41,3.35-.16,5.74.74,7.17s2.28,2.14,4.12,2.14c.86,0,1.53-.1,2-.29.47-.2.89-.29,1.26-.29.41,0,.73.17.95.5.22.34.34.92.34,1.76,0,1.34-.15,2.29-.46,2.85-.31.56-.77.95-1.38,1.17-.45.22-1.03.4-1.72.54-.7.14-1.35.21-1.97.21Z" fill="#001116"/><path d="M452.62,87.75c-2.87,0-5.37-.74-7.48-2.22-2.11-1.48-3.75-3.58-4.89-6.29-1.15-2.71-1.72-5.91-1.72-9.6,0-4.47.66-8.54,1.97-12.2,1.31-3.66,3.18-6.58,5.6-8.76,2.42-2.18,5.27-3.27,8.56-3.27,2.38,0,4.37.57,5.97,1.72,1.6,1.15,2.87,2.68,3.82,4.61.94,1.93,1.57,4.11,1.88,6.54.31,2.43.34,4.93.09,7.5-.08,1.01-.27,1.68-.55,2.01-.29.34-.74.5-1.35.5h-21.6l.49-4.86h19.57l-1.11,1.17c.29-2.57.22-4.88-.18-6.92-.41-2.04-1.19-3.67-2.34-4.9-1.15-1.23-2.73-1.84-4.74-1.84-2.13,0-3.92.66-5.36,1.97-1.44,1.31-2.55,2.98-3.35,4.99-.8,2.01-1.32,4.16-1.57,6.45l-.31,2.1c-.53,4.64,0,8.34,1.6,11.11,1.6,2.77,4.06,4.15,7.39,4.15,1.44,0,2.83-.22,4.19-.67,1.35-.45,2.65-1.2,3.88-2.26.57-.56,1.1-.81,1.57-.75.47.06.85.28,1.14.67.29.39.47.88.55,1.47.08.59.02,1.2-.18,1.84-.21.64-.58,1.21-1.11,1.72-1.4,1.34-3.05,2.35-4.96,3.02-1.91.67-3.72,1.01-5.45,1.01Z" fill="#001116"/><path d="M480.38,87.75c-3.08,0-5.3-1.22-6.68-3.65-1.38-2.43-1.8-5.99-1.26-10.69l4.99-42.33c.12-1.29.46-2.23,1.02-2.85.55-.61,1.28-.92,2.18-.92s1.5.39,1.91,1.17c.41.78.53,1.87.37,3.27l-4.86,41.58c-.33,2.85-.16,4.9.49,6.16.66,1.26,1.78,1.89,3.38,1.89.53,0,.95-.04,1.26-.13s.56-.13.77-.13c.33,0,.59.14.8.42.21.28.31.87.31,1.76,0,1.17-.21,2.1-.62,2.77-.41.67-.9,1.09-1.48,1.26-.33.17-.75.28-1.26.34-.51.05-.95.08-1.32.08Z" fill="#001116"/><path d="M500.75,87.75c-1.97,0-3.86-.31-5.66-.92-1.81-.61-3.34-1.42-4.62-2.43-.58-.45-.98-.98-1.2-1.59-.23-.61-.31-1.23-.25-1.84.06-.61.24-1.15.52-1.59s.67-.71,1.14-.8,1,.1,1.57.54c1.31,1.01,2.69,1.75,4.12,2.22,1.44.48,2.91.71,4.43.71,2.13,0,3.81-.57,5.02-1.72,1.21-1.14,1.82-2.72,1.82-4.74,0-1.34-.34-2.46-1.02-3.35-.68-.89-1.63-1.54-2.86-1.93l-5.79-1.84c-2.09-.61-3.73-1.82-4.92-3.6-1.19-1.79-1.79-3.97-1.79-6.54s.5-4.65,1.51-6.58c1-1.93,2.45-3.46,4.34-4.61,1.89-1.15,4.12-1.72,6.71-1.72,1.6,0,3.24.32,4.92.96,1.68.64,3.1,1.52,4.25,2.64.53.45.9.99,1.11,1.63.2.64.25,1.26.15,1.84-.1.59-.3,1.08-.58,1.47-.29.39-.67.62-1.14.67-.47.06-1-.17-1.57-.67-1.03-.95-2.18-1.66-3.45-2.14-1.27-.47-2.58-.71-3.94-.71-2.22,0-3.95.62-5.2,1.84-1.25,1.23-1.88,2.88-1.88,4.95,0,1.29.28,2.38.83,3.27.55.89,1.45,1.54,2.68,1.93l5.79,1.84c2.26.73,3.99,1.93,5.2,3.6,1.21,1.68,1.82,3.83,1.82,6.45,0,4.02-1.11,7.15-3.32,9.39-2.22,2.24-5.13,3.35-8.74,3.35Z" fill="#001116"/><path d="M588.81,6.29c-11.07-4.45-21.76,6.24-17.31,17.31,1.26,3.13,3.78,5.64,6.9,6.9,11.07,4.45,21.76-6.24,17.31-17.31-1.26-3.13-3.78-5.64-6.9-6.9ZM582.31,14.19c3.5-.93,6.43,2.01,5.5,5.5-.37,1.41-1.5,2.54-2.91,2.91-3.5.93-6.43-2.01-5.5-5.5.37-1.41,1.5-2.54,2.91-2.91ZM559.66,26.2l-15.74,1.78c-2.6.29-4.88,1.76-6.3,3.97l-9.58,14.85c-.75,1.17-.41,2.73.77,3.47l3.45,2.17c1,.63,2.33.34,2.97-.65l9.14-14.05c.41-.63,1.08-1.04,1.82-1.12l8.81-.97-6.43,18.2c-17.18,2.48-29.86,19.19-25.36,37.81,2.62,10.87,11.21,19.48,22.07,22.15,20.18,4.95,38.33-10.33,38.33-29.71,0-1.49-.21-2.94-.41-4.38h3.6c1.17,0,2.19.82,2.44,1.96l4.91,22.27c.3,1.35,1.64,2.21,2.99,1.9l3.62-.82c1.34-.3,2.18-1.62,1.89-2.96l-5.23-24.27c-.87-4-4.53-6.84-8.62-6.84h-8.21c-1.74-3.68-4.26-6.88-7.25-9.58l5.06-14.1c2.21-6.11-.44-12.95-6.16-16.01l-7.39-4.11v.14c-1.57-.84-3.44-1.3-5.2-1.09ZM563.04,39.43c.52-1.42,2.18-2.06,3.52-1.34l1.57.84c1.95,1.04,2.81,3.27,2.05,5.34l-4.38,12.04c-2.53-1.18-5.23-2.02-8.07-2.46l5.3-14.41ZM548.17,62.69c15.88-3.3,29.47,10.29,26.18,26.18-1.72,8.3-8.32,14.9-16.62,16.62-15.88,3.3-29.47-10.29-26.18-26.18,1.72-8.3,8.32-14.9,16.62-16.62Z" fill="#001116"/><line x1="7.61" y1="110.55" x2="550.16" y2="110.55" fill="#001116" stroke="#000" stroke-linecap="round" stroke-linejoin="round" stroke-width="8.22"/></svg>